<svg width="456" height="427" viewBox="0 0 456 427" fill="none" xmlns="http://www.w3.org/2000/svg">
  <path d="M303.384 310H301.592V299.648H303.384V310ZM307.129 310V299.648H308.665L313.449 307.68L312.793 308.288V299.648H314.441V310H312.905L308.217 302.224L308.777 301.536V310H307.129ZM319.974 310H318.182V299.648H319.974V310ZM327.304 300.736V310H325.528V300.736H327.304ZM322.872 301.216V299.648H329.96V301.216H322.872ZM334.643 310H332.851V299.648H334.643V310ZM337.461 310L340.677 299.648H342.613L345.829 310H343.989L341.621 301.92H341.557L339.189 310H337.461ZM339.301 307.504L339.701 306.032H343.621L343.957 307.504H339.301ZM351.291 300.736V310H349.515V300.736H351.291ZM346.859 301.216V299.648H353.947V301.216H346.859ZM358.631 310H356.839V299.648H358.631V310ZM364.472 310L361.48 299.648H363.336L365.448 307.36H365.528L367.592 299.648H369.336L366.36 310H364.472ZM372.179 310V299.648H378.259V301.2H373.971V308.448H378.339V310H372.179ZM373.235 305.568V304.064H377.427V305.568H373.235Z" fill="#FE3CB0"/>
  <path d="M197.515 132V121.648H200.427C201.174 121.648 201.819 121.792 202.363 122.08C202.907 122.368 203.328 122.773 203.627 123.296C203.926 123.819 204.075 124.432 204.075 125.136C204.075 125.851 203.926 126.475 203.627 127.008C203.328 127.531 202.907 127.941 202.363 128.24C201.819 128.528 201.179 128.672 200.443 128.672H198.667V127.136H200.315C200.71 127.136 201.046 127.056 201.323 126.896C201.611 126.736 201.83 126.507 201.979 126.208C202.139 125.899 202.219 125.541 202.219 125.136C202.219 124.731 202.139 124.384 201.979 124.096C201.83 123.808 201.611 123.584 201.323 123.424C201.035 123.264 200.694 123.184 200.299 123.184H199.307V132H197.515ZM205.578 132L208.794 121.648H210.73L213.946 132H212.106L209.738 123.92H209.674L207.306 132H205.578ZM207.418 129.504L207.818 128.032H211.738L212.074 129.504H207.418ZM219.612 121.472C220.188 121.472 220.695 121.573 221.132 121.776C221.58 121.979 221.959 122.24 222.268 122.56C222.588 122.869 222.839 123.2 223.02 123.552L221.692 124.368C221.479 123.963 221.196 123.632 220.844 123.376C220.492 123.109 220.092 122.976 219.644 122.976C219.356 122.976 219.09 123.035 218.844 123.152C218.61 123.259 218.418 123.413 218.268 123.616C218.119 123.819 218.044 124.053 218.044 124.32C218.044 124.576 218.108 124.8 218.236 124.992C218.364 125.173 218.572 125.344 218.86 125.504C219.148 125.653 219.527 125.819 219.996 126C220.604 126.213 221.132 126.459 221.58 126.736C222.028 127.013 222.37 127.349 222.604 127.744C222.85 128.128 222.972 128.597 222.972 129.152C222.972 129.749 222.834 130.277 222.556 130.736C222.279 131.184 221.884 131.541 221.372 131.808C220.871 132.064 220.284 132.192 219.612 132.192C218.738 132.192 217.986 131.989 217.356 131.584C216.738 131.179 216.268 130.656 215.948 130.016L217.276 129.248C217.511 129.675 217.82 130.021 218.204 130.288C218.588 130.555 219.047 130.688 219.58 130.688C219.911 130.688 220.194 130.635 220.428 130.528C220.674 130.411 220.866 130.251 221.004 130.048C221.143 129.845 221.212 129.605 221.212 129.328C221.212 128.933 221.058 128.613 220.748 128.368C220.439 128.123 219.916 127.867 219.18 127.6C218.604 127.387 218.098 127.147 217.66 126.88C217.223 126.613 216.882 126.288 216.636 125.904C216.391 125.509 216.268 125.035 216.268 124.48C216.268 123.904 216.418 123.392 216.716 122.944C217.026 122.485 217.431 122.128 217.932 121.872C218.444 121.605 219.004 121.472 219.612 121.472ZM229.134 121.472C229.71 121.472 230.217 121.573 230.654 121.776C231.102 121.979 231.481 122.24 231.79 122.56C232.11 122.869 232.361 123.2 232.542 123.552L231.214 124.368C231.001 123.963 230.718 123.632 230.366 123.376C230.014 123.109 229.614 122.976 229.166 122.976C228.878 122.976 228.611 123.035 228.366 123.152C228.131 123.259 227.939 123.413 227.79 123.616C227.641 123.819 227.566 124.053 227.566 124.32C227.566 124.576 227.63 124.8 227.758 124.992C227.886 125.173 228.094 125.344 228.382 125.504C228.67 125.653 229.049 125.819 229.518 126C230.126 126.213 230.654 126.459 231.102 126.736C231.55 127.013 231.891 127.349 232.126 127.744C232.371 128.128 232.494 128.597 232.494 129.152C232.494 129.749 232.355 130.277 232.078 130.736C231.801 131.184 231.406 131.541 230.894 131.808C230.393 132.064 229.806 132.192 229.134 132.192C228.259 132.192 227.507 131.989 226.878 131.584C226.259 131.179 225.79 130.656 225.47 130.016L226.798 129.248C227.033 129.675 227.342 130.021 227.726 130.288C228.11 130.555 228.569 130.688 229.102 130.688C229.433 130.688 229.715 130.635 229.95 130.528C230.195 130.411 230.387 130.251 230.526 130.048C230.665 129.845 230.734 129.605 230.734 129.328C230.734 128.933 230.579 128.613 230.27 128.368C229.961 128.123 229.438 127.867 228.702 127.6C228.126 127.387 227.619 127.147 227.182 126.88C226.745 126.613 226.403 126.288 226.158 125.904C225.913 125.509 225.79 125.035 225.79 124.48C225.79 123.904 225.939 123.392 226.238 122.944C226.547 122.485 226.953 122.128 227.454 121.872C227.966 121.605 228.526 121.472 229.134 121.472ZM237.52 132H235.728V121.648H237.52V132ZM249.329 126.832C249.329 127.643 249.228 128.379 249.025 129.04C248.822 129.701 248.529 130.267 248.145 130.736C247.772 131.195 247.324 131.552 246.801 131.808C246.278 132.064 245.692 132.192 245.041 132.192C244.401 132.192 243.814 132.064 243.281 131.808C242.758 131.552 242.31 131.189 241.937 130.72C241.564 130.251 241.276 129.691 241.073 129.04C240.87 128.379 240.769 127.637 240.769 126.816C240.769 126.005 240.87 125.275 241.073 124.624C241.276 123.963 241.564 123.397 241.937 122.928C242.31 122.459 242.758 122.101 243.281 121.856C243.814 121.6 244.401 121.472 245.041 121.472C245.692 121.472 246.278 121.6 246.801 121.856C247.324 122.101 247.772 122.459 248.145 122.928C248.529 123.397 248.822 123.963 249.025 124.624C249.228 125.285 249.329 126.021 249.329 126.832ZM242.657 126.816C242.657 127.392 242.716 127.915 242.833 128.384C242.95 128.843 243.11 129.237 243.313 129.568C243.526 129.899 243.777 130.149 244.065 130.32C244.364 130.491 244.689 130.576 245.041 130.576C245.393 130.576 245.713 130.491 246.001 130.32C246.3 130.149 246.556 129.899 246.769 129.568C246.982 129.237 247.142 128.843 247.249 128.384C247.366 127.915 247.425 127.392 247.425 126.816C247.425 126.251 247.366 125.739 247.249 125.28C247.142 124.811 246.982 124.416 246.769 124.096C246.556 123.765 246.3 123.515 246.001 123.344C245.713 123.163 245.393 123.072 245.041 123.072C244.689 123.072 244.364 123.163 244.065 123.344C243.777 123.515 243.526 123.765 243.313 124.096C243.11 124.416 242.95 124.811 242.833 125.28C242.716 125.739 242.657 126.251 242.657 126.816ZM252.568 132V121.648H254.104L258.888 129.68L258.232 130.288V121.648H259.88V132H258.344L253.656 124.224L254.216 123.536V132H252.568Z" fill="#01F5AC"/>
  <path d="M85.6925 307.648C85.5112 308.149 85.2339 308.592 84.8605 308.976C84.4979 309.349 84.0765 309.648 83.5965 309.872C83.1165 310.085 82.6099 310.192 82.0765 310.192C81.4792 310.192 80.9299 310.069 80.4285 309.824C79.9379 309.568 79.5112 309.211 79.1485 308.752C78.7965 308.293 78.5192 307.744 78.3165 307.104C78.1245 306.453 78.0285 305.733 78.0285 304.944C78.0285 304.123 78.1245 303.381 78.3165 302.72C78.5192 302.048 78.8019 301.472 79.1645 300.992C79.5272 300.501 79.9592 300.128 80.4605 299.872C80.9619 299.605 81.5165 299.472 82.1245 299.472C82.6472 299.472 83.1325 299.579 83.5805 299.792C84.0285 299.995 84.4285 300.277 84.7805 300.64C85.1325 301.003 85.4205 301.429 85.6445 301.92L84.1245 302.656C84.0072 302.347 83.8419 302.075 83.6285 301.84C83.4259 301.605 83.2019 301.419 82.9565 301.28C82.7112 301.141 82.4659 301.072 82.2205 301.072C81.8792 301.072 81.5699 301.168 81.2925 301.36C81.0152 301.541 80.7752 301.803 80.5725 302.144C80.3699 302.475 80.2099 302.875 80.0925 303.344C79.9859 303.813 79.9325 304.336 79.9325 304.912C79.9325 305.467 79.9859 305.973 80.0925 306.432C80.1992 306.88 80.3539 307.264 80.5565 307.584C80.7592 307.904 80.9992 308.155 81.2765 308.336C81.5539 308.507 81.8579 308.592 82.1885 308.592C82.4659 308.592 82.7325 308.523 82.9885 308.384C83.2552 308.245 83.4952 308.053 83.7085 307.808C83.9219 307.552 84.0872 307.264 84.2045 306.944L85.6925 307.648ZM90.4478 310H88.6558V299.648H90.4478V310ZM94.0478 299.648H95.8398V310H94.0478V299.648ZM89.9198 304.032H94.6718V305.6H89.9198V304.032ZM98.6559 310L101.872 299.648H103.808L107.024 310H105.184L102.816 301.92H102.752L100.384 310H98.6559ZM100.496 307.504L100.896 306.032H104.816L105.152 307.504H100.496ZM109.84 310V299.648H112.784C113.509 299.648 114.139 299.781 114.672 300.048C115.216 300.315 115.632 300.693 115.92 301.184C116.219 301.675 116.368 302.251 116.368 302.912C116.368 303.595 116.213 304.192 115.904 304.704C115.605 305.216 115.179 305.616 114.624 305.904C114.08 306.181 113.435 306.32 112.688 306.32H111.184V304.784H112.688C113.061 304.784 113.387 304.715 113.664 304.576C113.941 304.427 114.149 304.213 114.288 303.936C114.437 303.648 114.512 303.312 114.512 302.928C114.512 302.565 114.437 302.256 114.288 302C114.149 301.733 113.941 301.531 113.664 301.392C113.397 301.253 113.077 301.184 112.704 301.184H111.632V310H109.84ZM114.976 310L113.2 305.968L114.832 305.424L116.928 310H114.976ZM118.981 310L122.197 299.648H124.133L127.349 310H125.509L123.141 301.92H123.077L120.709 310H118.981ZM120.821 307.504L121.221 306.032H125.141L125.477 307.504H120.821ZM137.114 307.648C136.933 308.149 136.656 308.592 136.282 308.976C135.92 309.349 135.498 309.648 135.018 309.872C134.538 310.085 134.032 310.192 133.498 310.192C132.901 310.192 132.352 310.069 131.85 309.824C131.36 309.568 130.933 309.211 130.57 308.752C130.218 308.293 129.941 307.744 129.738 307.104C129.546 306.453 129.45 305.733 129.45 304.944C129.45 304.123 129.546 303.381 129.738 302.72C129.941 302.048 130.224 301.472 130.586 300.992C130.949 300.501 131.381 300.128 131.882 299.872C132.384 299.605 132.938 299.472 133.546 299.472C134.069 299.472 134.554 299.579 135.002 299.792C135.45 299.995 135.85 300.277 136.202 300.64C136.554 301.003 136.842 301.429 137.066 301.92L135.546 302.656C135.429 302.347 135.264 302.075 135.05 301.84C134.848 301.605 134.624 301.419 134.378 301.28C134.133 301.141 133.888 301.072 133.642 301.072C133.301 301.072 132.992 301.168 132.714 301.36C132.437 301.541 132.197 301.803 131.994 302.144C131.792 302.475 131.632 302.875 131.514 303.344C131.408 303.813 131.354 304.336 131.354 304.912C131.354 305.467 131.408 305.973 131.514 306.432C131.621 306.88 131.776 307.264 131.978 307.584C132.181 307.904 132.421 308.155 132.698 308.336C132.976 308.507 133.28 308.592 133.61 308.592C133.888 308.592 134.154 308.523 134.41 308.384C134.677 308.245 134.917 308.053 135.13 307.808C135.344 307.552 135.509 307.264 135.626 306.944L137.114 307.648ZM143.63 300.736V310H141.854V300.736H143.63ZM139.198 301.216V299.648H146.286V301.216H139.198ZM149.178 310V299.648H155.258V301.2H150.97V308.448H155.338V310H149.178ZM150.234 305.568V304.064H154.426V305.568H150.234ZM158.543 310V299.648H161.487C162.213 299.648 162.842 299.781 163.375 300.048C163.919 300.315 164.335 300.693 164.623 301.184C164.922 301.675 165.071 302.251 165.071 302.912C165.071 303.595 164.917 304.192 164.607 304.704C164.309 305.216 163.882 305.616 163.327 305.904C162.783 306.181 162.138 306.32 161.391 306.32H159.887V304.784H161.391C161.765 304.784 162.09 304.715 162.367 304.576C162.645 304.427 162.853 304.213 162.991 303.936C163.141 303.648 163.215 303.312 163.215 302.928C163.215 302.565 163.141 302.256 162.991 302C162.853 301.733 162.645 301.531 162.367 301.392C162.101 301.253 161.781 301.184 161.407 301.184H160.335V310H158.543ZM163.679 310L161.903 305.968L163.535 305.424L165.631 310H163.679Z" fill="#46E6FE"/>
  <path d="M18.1868 364.59L122.82 183.36L227.453 364.59H18.1868Z" stroke="white" stroke-width="2"/>
  <path d="M228.243 364.59L332.877 183.36L437.51 364.59H228.243Z" stroke="white" stroke-width="2"/>
  <path d="M123.789 183.23L228.422 2L333.055 183.23H123.789Z" stroke="white" stroke-width="2"/>
</svg>
