<svg width="1440" height="1230" viewBox="0 0 1440 1230" fill="none" xmlns="http://www.w3.org/2000/svg">
  <path d="M487.384 683H485.592V672.648H487.384V683ZM491.129 683V672.648H492.665L497.449 680.68L496.793 681.288V672.648H498.441V683H496.905L492.217 675.224L492.777 674.536V683H491.129ZM503.974 683H502.182V672.648H503.974V683ZM511.304 673.736V683H509.528V673.736H511.304ZM506.872 674.216V672.648H513.96V674.216H506.872ZM518.643 683H516.851V672.648H518.643V683ZM521.461 683L524.677 672.648H526.613L529.829 683H527.989L525.621 674.92H525.557L523.189 683H521.461ZM523.301 680.504L523.701 679.032H527.621L527.957 680.504H523.301ZM535.291 673.736V683H533.515V673.736H535.291ZM530.859 674.216V672.648H537.947V674.216H530.859ZM542.631 683H540.839V672.648H542.631V683ZM548.472 683L545.48 672.648H547.336L549.448 680.36H549.528L551.592 672.648H553.336L550.36 683H548.472ZM556.179 683V672.648H562.259V674.2H557.971V681.448H562.339V683H556.179ZM557.235 678.568V677.064H561.427V678.568H557.235Z" fill="#FE3CB0" />
  <path d="M624.757 739.75L836.5 373L1048.24 739.75H624.757Z" stroke="white" stroke-opacity="0.2" />
  <path d="M941.143 557.084L836.5 738.332L731.857 557.084L941.143 557.084Z" stroke="white" stroke-opacity="0.2" />
  <path d="M834.757 1106.75L1046.5 740L1258.24 1106.75H834.757Z" stroke="white" stroke-opacity="0.2" />
  <path d="M1151.14 924.084L1046.5 1105.33L941.857 924.084L1151.14 924.084Z" stroke="white" stroke-opacity="0.2" />
  <path d="M410.757 1106.75L622.5 740L834.243 1106.75H410.757Z" stroke="white" stroke-opacity="0.2" />
  <path d="M727.143 924.084L622.5 1105.33L517.857 924.084L727.143 924.084Z" stroke="white" stroke-opacity="0.2" />
  <path d="M-12.2432 1106.75L199.5 740L411.243 1106.75H-12.2432Z" stroke="white" stroke-opacity="0.2" />
  <path d="M304.143 924.084L199.5 1105.33L94.8567 924.084L304.143 924.084Z" stroke="white" stroke-opacity="0.2" />
  <path d="M1256.76 1106.75L1468.5 740L1680.24 1106.75H1256.76Z" stroke="white" stroke-opacity="0.2" />
  <path d="M1573.14 924.084L1468.5 1105.33L1363.86 924.084L1573.14 924.084Z" stroke="white" stroke-opacity="0.2" />
  <path d="M-221.243 739.75L-9.5 373L202.243 739.75H-221.243Z" stroke="white" stroke-opacity="0.2" />
  <path d="M95.1433 557.084L-9.50002 738.332L-114.143 557.084L95.1433 557.084Z" stroke="white" stroke-opacity="0.2" />
  <path d="M413.757 373.75L625.5 7L837.243 373.75H413.757Z" stroke="white" stroke-opacity="0.2" />
  <path d="M730.143 191.084L625.5 372.332L520.857 191.084L730.143 191.084Z" stroke="white" stroke-opacity="0.2" />
  <path d="M-8.24321 373.75L203.5 7L415.243 373.75H-8.24321Z" stroke="white" stroke-opacity="0.2" />
  <path d="M308.143 191.084L203.5 372.332L98.8567 191.084L308.143 191.084Z" stroke="white" stroke-opacity="0.2" />
  <path d="M835.757 373.75L1047.5 7L1259.24 373.75H835.757Z" stroke="white" stroke-opacity="0.2" />
  <path d="M1152.14 191.084L1047.5 372.332L942.857 191.084L1152.14 191.084Z" stroke="white" stroke-opacity="0.2" />
  <path d="M1256.76 373.75L1468.5 7L1680.24 373.75H1256.76Z" stroke="white" stroke-opacity="0.2" />
  <path d="M1573.14 191.084L1468.5 372.332L1363.86 191.084L1573.14 191.084Z" stroke="white" stroke-opacity="0.2" />
  <path d="M1152.19 557.248L1256.83 376L1361.47 557.248L1152.19 557.248Z" stroke="white" stroke-opacity="0.2" />
  <rect width="1472" height="1127" fill="url(#paint0_linear_2:24)" fill-opacity="0.75" />
  <rect width="1472" height="1127" fill="url(#paint1_linear_2:24)" fill-opacity="0.75" />
  <path d="M381.515 505V494.648H384.427C385.174 494.648 385.819 494.792 386.363 495.08C386.907 495.368 387.328 495.773 387.627 496.296C387.926 496.819 388.075 497.432 388.075 498.136C388.075 498.851 387.926 499.475 387.627 500.008C387.328 500.531 386.907 500.941 386.363 501.24C385.819 501.528 385.179 501.672 384.443 501.672H382.667V500.136H384.315C384.71 500.136 385.046 500.056 385.323 499.896C385.611 499.736 385.83 499.507 385.979 499.208C386.139 498.899 386.219 498.541 386.219 498.136C386.219 497.731 386.139 497.384 385.979 497.096C385.83 496.808 385.611 496.584 385.323 496.424C385.035 496.264 384.694 496.184 384.299 496.184H383.307V505H381.515ZM389.578 505L392.794 494.648H394.73L397.946 505H396.106L393.738 496.92H393.674L391.306 505H389.578ZM391.418 502.504L391.818 501.032H395.738L396.074 502.504H391.418ZM403.612 494.472C404.188 494.472 404.695 494.573 405.132 494.776C405.58 494.979 405.959 495.24 406.268 495.56C406.588 495.869 406.839 496.2 407.02 496.552L405.692 497.368C405.479 496.963 405.196 496.632 404.844 496.376C404.492 496.109 404.092 495.976 403.644 495.976C403.356 495.976 403.09 496.035 402.844 496.152C402.61 496.259 402.418 496.413 402.268 496.616C402.119 496.819 402.044 497.053 402.044 497.32C402.044 497.576 402.108 497.8 402.236 497.992C402.364 498.173 402.572 498.344 402.86 498.504C403.148 498.653 403.527 498.819 403.996 499C404.604 499.213 405.132 499.459 405.58 499.736C406.028 500.013 406.37 500.349 406.604 500.744C406.85 501.128 406.972 501.597 406.972 502.152C406.972 502.749 406.834 503.277 406.556 503.736C406.279 504.184 405.884 504.541 405.372 504.808C404.871 505.064 404.284 505.192 403.612 505.192C402.738 505.192 401.986 504.989 401.356 504.584C400.738 504.179 400.268 503.656 399.948 503.016L401.276 502.248C401.511 502.675 401.82 503.021 402.204 503.288C402.588 503.555 403.047 503.688 403.58 503.688C403.911 503.688 404.194 503.635 404.428 503.528C404.674 503.411 404.866 503.251 405.004 503.048C405.143 502.845 405.212 502.605 405.212 502.328C405.212 501.933 405.058 501.613 404.748 501.368C404.439 501.123 403.916 500.867 403.18 500.6C402.604 500.387 402.098 500.147 401.66 499.88C401.223 499.613 400.882 499.288 400.636 498.904C400.391 498.509 400.268 498.035 400.268 497.48C400.268 496.904 400.418 496.392 400.716 495.944C401.026 495.485 401.431 495.128 401.932 494.872C402.444 494.605 403.004 494.472 403.612 494.472ZM413.134 494.472C413.71 494.472 414.217 494.573 414.654 494.776C415.102 494.979 415.481 495.24 415.79 495.56C416.11 495.869 416.361 496.2 416.542 496.552L415.214 497.368C415.001 496.963 414.718 496.632 414.366 496.376C414.014 496.109 413.614 495.976 413.166 495.976C412.878 495.976 412.611 496.035 412.366 496.152C412.131 496.259 411.939 496.413 411.79 496.616C411.641 496.819 411.566 497.053 411.566 497.32C411.566 497.576 411.63 497.8 411.758 497.992C411.886 498.173 412.094 498.344 412.382 498.504C412.67 498.653 413.049 498.819 413.518 499C414.126 499.213 414.654 499.459 415.102 499.736C415.55 500.013 415.891 500.349 416.126 500.744C416.371 501.128 416.494 501.597 416.494 502.152C416.494 502.749 416.355 503.277 416.078 503.736C415.801 504.184 415.406 504.541 414.894 504.808C414.393 505.064 413.806 505.192 413.134 505.192C412.259 505.192 411.507 504.989 410.878 504.584C410.259 504.179 409.79 503.656 409.47 503.016L410.798 502.248C411.033 502.675 411.342 503.021 411.726 503.288C412.11 503.555 412.569 503.688 413.102 503.688C413.433 503.688 413.715 503.635 413.95 503.528C414.195 503.411 414.387 503.251 414.526 503.048C414.665 502.845 414.734 502.605 414.734 502.328C414.734 501.933 414.579 501.613 414.27 501.368C413.961 501.123 413.438 500.867 412.702 500.6C412.126 500.387 411.619 500.147 411.182 499.88C410.745 499.613 410.403 499.288 410.158 498.904C409.913 498.509 409.79 498.035 409.79 497.48C409.79 496.904 409.939 496.392 410.238 495.944C410.547 495.485 410.953 495.128 411.454 494.872C411.966 494.605 412.526 494.472 413.134 494.472ZM421.52 505H419.728V494.648H421.52V505ZM433.329 499.832C433.329 500.643 433.228 501.379 433.025 502.04C432.822 502.701 432.529 503.267 432.145 503.736C431.772 504.195 431.324 504.552 430.801 504.808C430.278 505.064 429.692 505.192 429.041 505.192C428.401 505.192 427.814 505.064 427.281 504.808C426.758 504.552 426.31 504.189 425.937 503.72C425.564 503.251 425.276 502.691 425.073 502.04C424.87 501.379 424.769 500.637 424.769 499.816C424.769 499.005 424.87 498.275 425.073 497.624C425.276 496.963 425.564 496.397 425.937 495.928C426.31 495.459 426.758 495.101 427.281 494.856C427.814 494.6 428.401 494.472 429.041 494.472C429.692 494.472 430.278 494.6 430.801 494.856C431.324 495.101 431.772 495.459 432.145 495.928C432.529 496.397 432.822 496.963 433.025 497.624C433.228 498.285 433.329 499.021 433.329 499.832ZM426.657 499.816C426.657 500.392 426.716 500.915 426.833 501.384C426.95 501.843 427.11 502.237 427.313 502.568C427.526 502.899 427.777 503.149 428.065 503.32C428.364 503.491 428.689 503.576 429.041 503.576C429.393 503.576 429.713 503.491 430.001 503.32C430.3 503.149 430.556 502.899 430.769 502.568C430.982 502.237 431.142 501.843 431.249 501.384C431.366 500.915 431.425 500.392 431.425 499.816C431.425 499.251 431.366 498.739 431.249 498.28C431.142 497.811 430.982 497.416 430.769 497.096C430.556 496.765 430.3 496.515 430.001 496.344C429.713 496.163 429.393 496.072 429.041 496.072C428.689 496.072 428.364 496.163 428.065 496.344C427.777 496.515 427.526 496.765 427.313 497.096C427.11 497.416 426.95 497.811 426.833 498.28C426.716 498.739 426.657 499.251 426.657 499.816ZM436.568 505V494.648H438.104L442.888 502.68L442.232 503.288V494.648H443.88V505H442.344L437.656 497.224L438.216 496.536V505H436.568Z" fill="#01F5AC" />
  <path d="M269.693 680.648C269.511 681.149 269.234 681.592 268.861 681.976C268.498 682.349 268.077 682.648 267.597 682.872C267.117 683.085 266.61 683.192 266.077 683.192C265.479 683.192 264.93 683.069 264.429 682.824C263.938 682.568 263.511 682.211 263.149 681.752C262.797 681.293 262.519 680.744 262.317 680.104C262.125 679.453 262.029 678.733 262.029 677.944C262.029 677.123 262.125 676.381 262.317 675.72C262.519 675.048 262.802 674.472 263.165 673.992C263.527 673.501 263.959 673.128 264.461 672.872C264.962 672.605 265.517 672.472 266.125 672.472C266.647 672.472 267.133 672.579 267.581 672.792C268.029 672.995 268.429 673.277 268.781 673.64C269.133 674.003 269.421 674.429 269.645 674.92L268.125 675.656C268.007 675.347 267.842 675.075 267.629 674.84C267.426 674.605 267.202 674.419 266.957 674.28C266.711 674.141 266.466 674.072 266.221 674.072C265.879 674.072 265.57 674.168 265.293 674.36C265.015 674.541 264.775 674.803 264.573 675.144C264.37 675.475 264.21 675.875 264.093 676.344C263.986 676.813 263.933 677.336 263.933 677.912C263.933 678.467 263.986 678.973 264.093 679.432C264.199 679.88 264.354 680.264 264.557 680.584C264.759 680.904 264.999 681.155 265.277 681.336C265.554 681.507 265.858 681.592 266.189 681.592C266.466 681.592 266.733 681.523 266.989 681.384C267.255 681.245 267.495 681.053 267.709 680.808C267.922 680.552 268.087 680.264 268.205 679.944L269.693 680.648ZM274.448 683H272.656V672.648H274.448V683ZM278.048 672.648H279.84V683H278.048V672.648ZM273.92 677.032H278.672V678.6H273.92V677.032ZM282.656 683L285.872 672.648H287.808L291.024 683H289.184L286.816 674.92H286.752L284.384 683H282.656ZM284.496 680.504L284.896 679.032H288.816L289.152 680.504H284.496ZM293.84 683V672.648H296.784C297.509 672.648 298.139 672.781 298.672 673.048C299.216 673.315 299.632 673.693 299.92 674.184C300.219 674.675 300.368 675.251 300.368 675.912C300.368 676.595 300.213 677.192 299.904 677.704C299.605 678.216 299.179 678.616 298.624 678.904C298.08 679.181 297.435 679.32 296.688 679.32H295.184V677.784H296.688C297.061 677.784 297.387 677.715 297.664 677.576C297.941 677.427 298.149 677.213 298.288 676.936C298.437 676.648 298.512 676.312 298.512 675.928C298.512 675.565 298.437 675.256 298.288 675C298.149 674.733 297.941 674.531 297.664 674.392C297.397 674.253 297.077 674.184 296.704 674.184H295.632V683H293.84ZM298.976 683L297.2 678.968L298.832 678.424L300.928 683H298.976ZM302.981 683L306.197 672.648H308.133L311.349 683H309.509L307.141 674.92H307.077L304.709 683H302.981ZM304.821 680.504L305.221 679.032H309.141L309.477 680.504H304.821ZM321.114 680.648C320.933 681.149 320.656 681.592 320.282 681.976C319.92 682.349 319.498 682.648 319.018 682.872C318.538 683.085 318.032 683.192 317.498 683.192C316.901 683.192 316.352 683.069 315.85 682.824C315.36 682.568 314.933 682.211 314.57 681.752C314.218 681.293 313.941 680.744 313.738 680.104C313.546 679.453 313.45 678.733 313.45 677.944C313.45 677.123 313.546 676.381 313.738 675.72C313.941 675.048 314.224 674.472 314.586 673.992C314.949 673.501 315.381 673.128 315.882 672.872C316.384 672.605 316.938 672.472 317.546 672.472C318.069 672.472 318.554 672.579 319.002 672.792C319.45 672.995 319.85 673.277 320.202 673.64C320.554 674.003 320.842 674.429 321.066 674.92L319.546 675.656C319.429 675.347 319.264 675.075 319.05 674.84C318.848 674.605 318.624 674.419 318.378 674.28C318.133 674.141 317.888 674.072 317.642 674.072C317.301 674.072 316.992 674.168 316.714 674.36C316.437 674.541 316.197 674.803 315.994 675.144C315.792 675.475 315.632 675.875 315.514 676.344C315.408 676.813 315.354 677.336 315.354 677.912C315.354 678.467 315.408 678.973 315.514 679.432C315.621 679.88 315.776 680.264 315.978 680.584C316.181 680.904 316.421 681.155 316.698 681.336C316.976 681.507 317.28 681.592 317.61 681.592C317.888 681.592 318.154 681.523 318.41 681.384C318.677 681.245 318.917 681.053 319.13 680.808C319.344 680.552 319.509 680.264 319.626 679.944L321.114 680.648ZM327.63 673.736V683H325.854V673.736H327.63ZM323.198 674.216V672.648H330.286V674.216H323.198ZM333.178 683V672.648H339.258V674.2H334.97V681.448H339.338V683H333.178ZM334.234 678.568V677.064H338.426V678.568H334.234ZM342.543 683V672.648H345.487C346.213 672.648 346.842 672.781 347.375 673.048C347.919 673.315 348.335 673.693 348.623 674.184C348.922 674.675 349.071 675.251 349.071 675.912C349.071 676.595 348.917 677.192 348.607 677.704C348.309 678.216 347.882 678.616 347.327 678.904C346.783 679.181 346.138 679.32 345.391 679.32H343.887V677.784H345.391C345.765 677.784 346.09 677.715 346.367 677.576C346.645 677.427 346.853 677.213 346.991 676.936C347.141 676.648 347.215 676.312 347.215 675.928C347.215 675.565 347.141 675.256 346.991 675C346.853 674.733 346.645 674.531 346.367 674.392C346.101 674.253 345.781 674.184 345.407 674.184H344.335V683H342.543ZM347.679 683L345.903 678.968L347.535 678.424L349.631 683H347.679Z" fill="#46E6FE" />
  <path d="M202.187 737.59L306.82 556.36L411.453 737.59H202.187Z" stroke="white" stroke-width="2" />
  <path d="M412.243 737.59L516.877 556.36L621.51 737.59H412.243Z" stroke="white" stroke-width="2" />
  <path d="M307.789 556.23L412.422 375L517.055 556.23H307.789Z" stroke="white" stroke-width="2" />
  <defs>
    <linearGradient id="paint0_linear_2:24" x1="1429.85" y1="739" x2="443.039" y2="741.113" gradientUnits="userSpaceOnUse">
      <stop stop-color="#0A0A0A" />
      <stop offset="1" stop-opacity="0" />
    </linearGradient>
    <linearGradient id="paint1_linear_2:24" x1="211" y1="86" x2="199.056" y2="571.001" gradientUnits="userSpaceOnUse">
      <stop stop-color="#0A0A0A" />
      <stop offset="1" stop-opacity="0" />
    </linearGradient>
  </defs>
</svg>
