<svg width="600" height="602" viewBox="0 0 600 602" fill="none" xmlns="http://www.w3.org/2000/svg">
<path d="M144.318 396.995H143.957V397.356V479.681V480.042H144.318H173.182H173.378L173.485 479.877L226.803 397.552L227.163 396.995H226.499H144.318ZM450.592 219.163H450.594H450.995C476.015 219.163 496.655 200.739 496.655 177.456C496.655 154.544 476.42 135.75 450.995 135.75H450.594H439.369H439.173L439.066 135.915L385.748 218.24L385.39 218.793L386.049 218.797L450.592 219.163ZM144.318 136.116H143.957V136.477V230.144V230.79L144.507 230.452L296.843 136.784L297.931 136.116H296.654H144.318ZM436.162 396.995H436.06L435.973 397.048L302.077 479.374L300.99 480.042H302.267H450.995C476.015 480.042 496.655 461.618 496.655 438.336C496.655 415.785 476.015 396.995 450.995 396.995H436.162ZM596.366 298.603L596.345 298.613L596.326 298.624L483.677 368.143L483.061 368.524L483.736 368.787C513.683 380.449 534.418 407.404 534.418 438.701C534.418 480.55 497.328 514.811 450.995 514.811H450.988H450.977H450.963H450.945H450.922H450.896H450.866H450.833H450.795H450.754H450.708H450.659H450.607H450.55H450.49H450.426H450.359H450.287H450.212H450.134H450.051H449.966H449.876H449.783H449.686H449.586H449.482H449.375H449.264H449.149H449.031H448.91H448.785H448.656H448.524H448.389H448.25H448.108H447.962H447.813H447.661H447.505H447.346H447.184H447.018H446.849H446.677H446.502H446.323H446.141H445.956H445.767H445.575H445.381H445.183H444.981H444.777H444.569H444.359H444.145H443.928H443.708H443.486H443.26H443.031H442.798H442.563H442.325H442.084H441.84H441.593H441.343H441.091H440.835H440.576H440.315H440.05H439.783H439.513H439.24H438.964H438.686H438.405H438.121H437.834H437.544H437.252H436.957H436.659H436.359H436.056H435.75H435.442H435.131H434.817H434.501H434.182H433.86H433.536H433.21H432.881H432.549H432.215H431.879H431.54H431.198H430.854H430.508H430.159H429.808H429.454H429.098H428.74H428.379H428.016H427.65H427.283H426.913H426.54H426.166H425.789H425.41H425.029H424.645H424.259H423.872H423.482H423.089H422.695H422.298H421.9H421.499H421.096H420.691H420.284H419.875H419.464H419.051H418.636H418.219H417.8H417.379H416.956H416.531H416.105H415.676H415.245H414.813H414.379H413.942H413.504H413.064H412.623H412.179H411.734H411.287H410.838H410.388H409.936H409.482H409.026H408.569H408.11H407.649H407.187H406.723H406.257H405.79H405.321H404.851H404.379H403.906H403.431H402.954H402.476H401.997H401.516H401.033H400.55H400.064H399.578H399.09H398.6H398.109H397.617H397.123H396.628H396.132H395.634H395.136H394.635H394.134H393.631H393.127H392.622H392.116H391.608H391.1H390.59H390.079H389.567H389.053H388.539H388.023H387.507H386.989H386.47H385.95H385.429H384.908H384.385H383.861H383.336H382.81H382.284H381.756H381.227H380.698H380.167H379.636H379.104H378.571H378.037H377.503H376.967H376.431H375.894H375.356H374.818H374.278H373.738H373.198H372.656H372.114H371.572H371.028H370.484H369.939H369.394H368.848H368.302H367.755H367.207H366.659H366.11H365.561H365.011H364.461H363.911H363.36H362.808H362.256H361.704H361.151H360.598H360.044H359.49H358.936H358.381H357.826H357.271H356.715H356.16H355.604H355.047H354.491H353.934H353.377H352.82H352.262H351.705H351.147H350.589H350.031H349.473H348.915H348.357H347.798H347.24H346.681H346.123H345.565H345.006H344.448H343.889H343.331H342.772H342.214H341.656H341.098H340.54H339.982H339.424H338.867H338.309H337.752H337.195H336.638H336.082H335.525H334.969H334.413H333.858H333.303H332.748H332.193H331.639H331.085H330.531H329.978H329.425H328.873H328.321H327.769H327.218H326.667H326.117H325.567H325.018H324.469H323.921H323.374H322.827H322.28H321.734H321.189H320.644H320.1H319.557H319.014H318.472H317.93H317.39H316.849H316.31H315.772H315.234H314.697H314.16H313.625H313.09H312.556H312.023H311.491H310.96H310.43H309.9H309.371H308.844H308.317H307.791H307.266H306.742H306.219H305.697H305.177H304.657H304.138H303.62H303.103H302.588H302.073H301.56H301.048H300.537H300.027H299.518H299.01H298.504H297.999H297.495H296.992H296.49H295.99H295.491H294.994H294.497H294.002H293.508H293.016H292.525H292.036H291.547H291.061H290.575H290.091H289.609H289.128H288.648H288.17H287.694H287.219H286.745H286.273H285.803H285.334H284.867H284.401H283.937H283.475H283.014H282.555H282.097H281.642H281.188H280.735H280.285H279.836H279.389H278.943H278.5H278.058H277.618H277.18H276.743H276.309H275.876H275.446H275.017H274.59H274.165H273.742H273.321H272.902H272.485H272.069H271.656H271.245H270.836H270.429H270.024H269.621H269.22H268.822H268.425H268.03H267.638H267.248H266.86H266.474H266.09H265.709H265.33H264.953H264.578H264.206H263.836H263.468H263.102H262.739H262.378H262.02H261.663H261.31H260.958H260.609H260.263H259.919H259.577H259.238H258.901H258.567H258.235H257.906H257.579H257.255H256.934H256.615H256.298H255.985H255.673H255.365H255.059H254.756H254.455H254.157H253.862H253.57H253.28H252.993H252.709H252.427H252.149H251.873H251.6H251.329H251.062H250.798H250.536H250.277H250.021H249.768H249.518H249.271H249.027H248.786H248.547H248.312H248.08H247.851H247.625H247.401H247.181H246.964H246.751H246.54H246.332H246.128H245.926H245.728H245.533H245.341H245.239L245.152 514.865L105.262 600.837C104.472 601.198 103.735 601.527 102.626 601.527C99.9878 601.527 98.1767 599.829 98.1767 597.498C98.1767 596.505 98.5303 595.847 98.9278 595.121L150.635 515.002L150.994 514.445H150.332H110.243C107.985 514.445 105.794 512.729 105.794 510.416V366.621C105.794 364.29 107.605 362.592 110.243 362.592H285.029C287.287 362.592 289.478 364.308 289.478 366.621C289.478 367.613 289.125 368.272 288.727 368.998L206.954 495.584L207.447 496.088L484.056 325.583L485.141 324.915H483.867H57.7273H4.81061C2.17207 324.915 0.361037 323.217 0.361037 320.885C0.361037 319.556 1.08645 318.225 2.55519 317.555L2.57553 317.545L2.59456 317.534L106.023 253.869L106.194 253.763V253.561V136.111V105.376V105.01C106.194 104.05 106.722 103.138 107.564 102.455C108.406 101.772 109.529 101.347 110.644 101.347H353.58H353.682L353.769 101.293L460.003 35.7988L460.003 35.7986L516.509 1.05096C517.299 0.690436 518.036 0.361037 519.145 0.361037C521.783 0.361037 523.594 2.05917 523.594 4.39067C523.594 4.70107 523.507 5.11653 523.362 5.55855C523.22 5.99101 523.031 6.42355 522.843 6.76786C522.841 6.7714 522.839 6.77492 522.837 6.77844L461.916 101.522L461.602 102.01L462.178 102.076C503.314 106.815 534.819 138.882 534.819 177.456C534.819 219.305 497.729 253.566 451.395 253.566H451.393H451.391H451.388H451.386H451.384H451.381H451.379H451.377H451.374H451.372H451.37H451.367H451.365H451.363H451.36H451.358H451.355H451.353H451.351H451.348H451.346H451.344H451.341H451.339H451.337H451.334H451.332H451.33H451.327H451.325H451.323H451.32H451.318H451.315H451.313H451.311H451.308H451.306H451.304H451.301H451.299H451.297H451.294H451.292H451.289H451.287H451.285H451.282H451.28H451.278H451.275H451.273H451.271H451.268H451.266H451.263H451.261H451.259H451.256H451.254H451.251H451.249H451.247H451.244H451.242H451.24H451.237H451.235H451.232H451.23H451.228H451.225H451.223H451.22H451.218H451.216H451.213H451.211H451.208H451.206H451.204H451.201H451.199H451.196H451.194H451.192H451.189H451.187H451.184H451.182H451.179H451.177H451.175H451.172H451.17H451.167H451.165H451.162H451.16H451.158H451.155H451.153H451.15H451.148H451.145H451.143H451.14H451.138H451.136H451.133H451.131H451.128H451.126H451.123H451.121H451.118H451.116H451.113H451.111H451.108H451.106H451.103H451.101H451.098H451.096H451.094H451.091H451.089H451.086H451.084H451.081H451.079H451.076H451.074H451.071H451.068H451.066H451.063H451.061H451.058H451.056H451.053H451.051H451.048H451.046H451.043H451.041H451.038H451.036H451.033H451.03H451.028H451.025H451.023H451.02H451.018H451.015H451.013H451.01H451.007H451.005H451.002H451H450.997H450.994H450.992H450.989H450.987H450.984H450.981H450.979H450.976H450.974H450.971H450.968H450.966H450.963H450.96H450.958H450.955H450.953H450.95H450.947H450.945H450.942H450.939H450.937H450.934H450.931H450.929H450.926H450.923H450.921H450.918H450.915H450.913H450.91H450.907H450.904H450.902H450.899H450.896H450.894H450.891H450.888H450.885H450.883H450.88H450.877H450.875H450.872H450.869H450.866H450.863H450.861H450.858H450.855H450.852H450.85H450.847H450.844H450.841H450.839H450.836H450.833H450.83H450.827H450.824H450.822H450.819H450.816H450.813H450.81H450.808H450.805H450.802H450.799H450.796H450.793H450.79H450.788H450.785H450.782H450.779H450.776H450.773H450.77H450.767H450.764H450.762H450.759H450.756H450.753H450.75H450.747H450.744H450.741H450.738H450.735H450.732H450.729H450.726H450.723H450.72H450.717H450.714H450.711H450.708H450.705H450.702H450.699H450.696H450.693H450.69H450.687H450.684H450.681H450.678H450.675H450.672H450.669H450.666H450.663H450.66H450.657H450.654H450.651H450.648H450.645H450.641H450.638H450.635H450.632H450.629H450.626H450.623H450.62H450.616H450.613H450.61H450.607H450.604H450.601H450.597H450.594H450.591H450.588H450.585H450.581H450.578H450.575H450.572H450.569H450.565H450.562H450.559H450.556H450.552H450.549H450.546H450.543H450.539H450.536H450.533H450.53H450.526H450.523H450.52H450.516H450.513H450.51H450.506H450.503H450.5H450.496H450.493H450.49H450.486H450.483H450.479H450.476H450.473H450.469H450.466H450.462H450.459H450.456H450.452H450.449H450.445H450.442H450.438H450.435H450.431H450.428H450.424H450.421H450.417H450.414H450.41H450.407H450.403H450.4H450.396H450.393H450.389H450.386H450.382H450.379H450.375H450.371H450.368H450.364H450.361H450.357H450.353H450.35H450.346H450.343H450.339H450.335H450.332H450.328H450.324H450.321H450.317H450.313H450.31H450.306H450.302H450.298H450.295H450.291H450.287H450.284H450.28H450.276H450.272H450.268H450.265H450.261H450.257H450.253H450.25H450.246H450.242H450.238H450.234H450.23H450.227H450.223H450.219H450.215H450.211H450.207H450.203H450.199H450.195H450.192H450.188H450.184H450.18H450.176H450.172H450.168H450.164H450.16H450.156H450.152H450.148H450.144H450.14H450.136H450.132H450.128H450.124H450.12H450.116H450.112H450.107H450.103H450.099H450.095H450.091H450.087H450.083H450.079H450.075H450.07H450.066H450.062H450.058H450.054H450.05H450.045H450.041H450.037H450.033H450.028H450.024H450.02H450.016H450.011H450.007H450.003H449.999H449.994H449.99H449.986H449.981H449.977H449.973H449.968H449.964H449.96H449.955H449.951H449.946H449.942H449.938H449.933H449.929H449.924H449.92H449.915H449.911H449.907H449.902H449.898H449.893H449.889H449.884H449.88H449.875H449.87H449.866H449.861H449.857H449.852H449.848H449.843H449.838H449.834H449.829H449.825H449.82H449.815H449.811H449.806H449.801H449.797H449.792H363.602H327.522C324.884 253.566 323.073 251.868 323.073 249.537C323.073 249.228 323.158 248.91 323.26 248.534L323.266 248.514C323.354 248.193 323.454 247.828 323.471 247.451L414.417 106.303L413.924 105.801L114.864 290.209L113.78 290.877H115.054H541.193H594.511C597.135 290.877 598.941 292.557 598.96 294.868C598.569 296.624 597.812 297.943 596.366 298.603Z" stroke="white" stroke-opacity="0.2" stroke-width="0.722074"/>
</svg>
